FILE "JVC CD+G Karaoke - Top Hit Sampler (1993)(JVC)(US).img" BINARY
  TRACK 01 AUDIO
    INDEX 00 00:00:00
    INDEX 01 00:00:37
  TRACK 02 AUDIO
    INDEX 00 03:36:10
    INDEX 01 03:37:47
  TRACK 03 AUDIO
    INDEX 00 07:49:40
    INDEX 01 07:51:02
  TRACK 04 AUDIO
    INDEX 00 12:28:60
    INDEX 01 12:30:22
  TRACK 05 AUDIO
    INDEX 00 16:01:18
    INDEX 01 16:02:55
  TRACK 06 AUDIO
    INDEX 00 20:29:00
    INDEX 01 20:30:37
